<mxfile host="app.diagrams.net" modified="2024-01-03T07:58:22.350Z" agent="Mozilla/5.0 (Macintosh; Intel Mac OS X 10_15_7) AppleWebKit/605.1.15 (KHTML, like Gecko) Version/17.2.1 Safari/605.1.15" etag="kj1IwqpoP-rQbmBIhRlv" version="22.1.16" type="github">
  <diagram id="C5RBs43oDa-KdzZeNtuy" name="Page-1">
    <mxGraphModel dx="1307" dy="957" grid="1" gridSize="10" guides="1" tooltips="1" connect="1" arrows="1" fold="1" page="1" pageScale="1" pageWidth="827" pageHeight="1169" math="0" shadow="0">
      <root>
        <mxCell id="WIyWlLk6GJQsqaUBKTNV-0" />
        <mxCell id="WIyWlLk6GJQsqaUBKTNV-1" parent="WIyWlLk6GJQsqaUBKTNV-0" />
        <mxCell id="hBUY9OWEQW0w1tbR3MpV-15" style="edgeStyle=orthogonalEdgeStyle;rounded=0;orthogonalLoop=1;jettySize=auto;html=1;" parent="WIyWlLk6GJQsqaUBKTNV-1" source="hBUY9OWEQW0w1tbR3MpV-0" target="hBUY9OWEQW0w1tbR3MpV-2" edge="1">
          <mxGeometry relative="1" as="geometry" />
        </mxCell>
        <mxCell id="hBUY9OWEQW0w1tbR3MpV-0" value="&lt;b&gt;START&lt;/b&gt; get_next_line" style="rounded=1;whiteSpace=wrap;html=1;" parent="WIyWlLk6GJQsqaUBKTNV-1" vertex="1">
          <mxGeometry x="294" y="8" width="120" height="60" as="geometry" />
        </mxCell>
        <mxCell id="hBUY9OWEQW0w1tbR3MpV-1" value="int fd" style="text;html=1;align=center;verticalAlign=middle;resizable=0;points=[];autosize=1;strokeColor=default;fillColor=none;dashed=1;dashPattern=8 8;" parent="WIyWlLk6GJQsqaUBKTNV-1" vertex="1">
          <mxGeometry x="240" width="50" height="30" as="geometry" />
        </mxCell>
        <mxCell id="hBUY9OWEQW0w1tbR3MpV-16" style="edgeStyle=orthogonalEdgeStyle;rounded=0;orthogonalLoop=1;jettySize=auto;html=1;entryX=0.5;entryY=0;entryDx=0;entryDy=0;" parent="WIyWlLk6GJQsqaUBKTNV-1" source="hBUY9OWEQW0w1tbR3MpV-2" target="hBUY9OWEQW0w1tbR3MpV-3" edge="1">
          <mxGeometry relative="1" as="geometry" />
        </mxCell>
        <mxCell id="hBUY9OWEQW0w1tbR3MpV-2" value="static t_list *list" style="shape=internalStorage;whiteSpace=wrap;html=1;backgroundOutline=1;dx=10;dy=10;" parent="WIyWlLk6GJQsqaUBKTNV-1" vertex="1">
          <mxGeometry x="294" y="85" width="120" height="40" as="geometry" />
        </mxCell>
        <mxCell id="hBUY9OWEQW0w1tbR3MpV-17" style="edgeStyle=orthogonalEdgeStyle;rounded=0;orthogonalLoop=1;jettySize=auto;html=1;entryX=0.5;entryY=0;entryDx=0;entryDy=0;" parent="WIyWlLk6GJQsqaUBKTNV-1" source="hBUY9OWEQW0w1tbR3MpV-3" target="hBUY9OWEQW0w1tbR3MpV-4" edge="1">
          <mxGeometry relative="1" as="geometry" />
        </mxCell>
        <mxCell id="hBUY9OWEQW0w1tbR3MpV-3" value="t_list *last_node" style="shape=internalStorage;whiteSpace=wrap;html=1;backgroundOutline=1;dx=10;dy=10;" parent="WIyWlLk6GJQsqaUBKTNV-1" vertex="1">
          <mxGeometry x="294" y="139" width="120" height="40" as="geometry" />
        </mxCell>
        <mxCell id="hBUY9OWEQW0w1tbR3MpV-18" style="edgeStyle=orthogonalEdgeStyle;rounded=0;orthogonalLoop=1;jettySize=auto;html=1;entryX=0.5;entryY=0;entryDx=0;entryDy=0;" parent="WIyWlLk6GJQsqaUBKTNV-1" source="hBUY9OWEQW0w1tbR3MpV-4" target="hBUY9OWEQW0w1tbR3MpV-5" edge="1">
          <mxGeometry relative="1" as="geometry" />
        </mxCell>
        <mxCell id="hBUY9OWEQW0w1tbR3MpV-4" value="char *data" style="shape=internalStorage;whiteSpace=wrap;html=1;backgroundOutline=1;dx=10;dy=10;" parent="WIyWlLk6GJQsqaUBKTNV-1" vertex="1">
          <mxGeometry x="294" y="190" width="120" height="40" as="geometry" />
        </mxCell>
        <mxCell id="hBUY9OWEQW0w1tbR3MpV-8" value="" style="edgeStyle=orthogonalEdgeStyle;rounded=0;orthogonalLoop=1;jettySize=auto;html=1;" parent="WIyWlLk6GJQsqaUBKTNV-1" source="hBUY9OWEQW0w1tbR3MpV-5" target="hBUY9OWEQW0w1tbR3MpV-9" edge="1">
          <mxGeometry relative="1" as="geometry">
            <mxPoint x="178" y="333" as="targetPoint" />
          </mxGeometry>
        </mxCell>
        <mxCell id="hBUY9OWEQW0w1tbR3MpV-22" value="YES" style="edgeLabel;html=1;align=center;verticalAlign=middle;resizable=0;points=[];" parent="hBUY9OWEQW0w1tbR3MpV-8" vertex="1" connectable="0">
          <mxGeometry x="-0.2264" y="-2" relative="1" as="geometry">
            <mxPoint as="offset" />
          </mxGeometry>
        </mxCell>
        <mxCell id="hBUY9OWEQW0w1tbR3MpV-20" value="NO" style="edgeStyle=orthogonalEdgeStyle;rounded=0;orthogonalLoop=1;jettySize=auto;html=1;" parent="WIyWlLk6GJQsqaUBKTNV-1" source="hBUY9OWEQW0w1tbR3MpV-5" target="hBUY9OWEQW0w1tbR3MpV-19" edge="1">
          <mxGeometry relative="1" as="geometry" />
        </mxCell>
        <mxCell id="hBUY9OWEQW0w1tbR3MpV-5" value="&lt;b&gt;if&lt;/b&gt;&lt;br&gt;fd &amp;lt; 0 || &lt;br&gt;BUFFER_SIZE &amp;lt;= 0 &lt;br&gt;|| read(fd, 0, 0)" style="rhombus;whiteSpace=wrap;html=1;" parent="WIyWlLk6GJQsqaUBKTNV-1" vertex="1">
          <mxGeometry x="276" y="253" width="156" height="160" as="geometry" />
        </mxCell>
        <mxCell id="hBUY9OWEQW0w1tbR3MpV-6" value="char *" style="text;html=1;align=center;verticalAlign=middle;resizable=0;points=[];autosize=1;strokeColor=default;fillColor=none;dashed=1;dashPattern=1 2;" parent="WIyWlLk6GJQsqaUBKTNV-1" vertex="1">
          <mxGeometry x="420" width="50" height="30" as="geometry" />
        </mxCell>
        <mxCell id="hBUY9OWEQW0w1tbR3MpV-12" value="" style="edgeStyle=orthogonalEdgeStyle;rounded=0;orthogonalLoop=1;jettySize=auto;html=1;" parent="WIyWlLk6GJQsqaUBKTNV-1" source="hBUY9OWEQW0w1tbR3MpV-9" target="hBUY9OWEQW0w1tbR3MpV-11" edge="1">
          <mxGeometry relative="1" as="geometry" />
        </mxCell>
        <mxCell id="hBUY9OWEQW0w1tbR3MpV-86" style="edgeStyle=orthogonalEdgeStyle;rounded=0;orthogonalLoop=1;jettySize=auto;html=1;dashed=1;dashPattern=8 8;strokeColor=#B3B3B3;endArrow=block;endFill=1;startArrow=box;startFill=0;" parent="WIyWlLk6GJQsqaUBKTNV-1" source="hBUY9OWEQW0w1tbR3MpV-9" target="hBUY9OWEQW0w1tbR3MpV-85" edge="1">
          <mxGeometry relative="1" as="geometry">
            <Array as="points">
              <mxPoint x="137" y="150" />
              <mxPoint x="-160" y="150" />
              <mxPoint x="-160" y="30" />
            </Array>
          </mxGeometry>
        </mxCell>
        <mxCell id="hBUY9OWEQW0w1tbR3MpV-9" value="&lt;i&gt;clear_list&lt;/i&gt;(&amp;amp;list)" style="shape=process;whiteSpace=wrap;html=1;backgroundOutline=1;" parent="WIyWlLk6GJQsqaUBKTNV-1" vertex="1">
          <mxGeometry x="77" y="303" width="120" height="60" as="geometry" />
        </mxCell>
        <mxCell id="hBUY9OWEQW0w1tbR3MpV-47" style="edgeStyle=orthogonalEdgeStyle;rounded=0;orthogonalLoop=1;jettySize=auto;html=1;" parent="WIyWlLk6GJQsqaUBKTNV-1" source="hBUY9OWEQW0w1tbR3MpV-11" target="hBUY9OWEQW0w1tbR3MpV-13" edge="1">
          <mxGeometry relative="1" as="geometry" />
        </mxCell>
        <mxCell id="hBUY9OWEQW0w1tbR3MpV-11" value="return(NULL)" style="whiteSpace=wrap;html=1;" parent="WIyWlLk6GJQsqaUBKTNV-1" vertex="1">
          <mxGeometry x="77" y="1109" width="120" height="60" as="geometry" />
        </mxCell>
        <mxCell id="hBUY9OWEQW0w1tbR3MpV-13" value="&lt;b&gt;STOP&lt;/b&gt; get_next_line()" style="rounded=1;whiteSpace=wrap;html=1;" parent="WIyWlLk6GJQsqaUBKTNV-1" vertex="1">
          <mxGeometry x="294" y="1109" width="120" height="60" as="geometry" />
        </mxCell>
        <mxCell id="hBUY9OWEQW0w1tbR3MpV-43" value="" style="edgeStyle=orthogonalEdgeStyle;rounded=0;orthogonalLoop=1;jettySize=auto;html=1;exitX=1;exitY=0.5;exitDx=0;exitDy=0;" parent="WIyWlLk6GJQsqaUBKTNV-1" source="hBUY9OWEQW0w1tbR3MpV-19" target="hBUY9OWEQW0w1tbR3MpV-42" edge="1">
          <mxGeometry relative="1" as="geometry">
            <mxPoint x="414" y="463" as="sourcePoint" />
          </mxGeometry>
        </mxCell>
        <mxCell id="hBUY9OWEQW0w1tbR3MpV-19" value="&lt;b&gt;while&lt;/b&gt; (1)" style="shape=hexagon;perimeter=hexagonPerimeter2;whiteSpace=wrap;html=1;fixedSize=1;" parent="WIyWlLk6GJQsqaUBKTNV-1" vertex="1">
          <mxGeometry x="294" y="443" width="120" height="80" as="geometry" />
        </mxCell>
        <mxCell id="hBUY9OWEQW0w1tbR3MpV-28" value="NO" style="edgeStyle=orthogonalEdgeStyle;rounded=0;orthogonalLoop=1;jettySize=auto;html=1;" parent="WIyWlLk6GJQsqaUBKTNV-1" source="hBUY9OWEQW0w1tbR3MpV-21" target="hBUY9OWEQW0w1tbR3MpV-27" edge="1">
          <mxGeometry relative="1" as="geometry" />
        </mxCell>
        <mxCell id="hBUY9OWEQW0w1tbR3MpV-39" value="" style="edgeStyle=orthogonalEdgeStyle;rounded=0;orthogonalLoop=1;jettySize=auto;html=1;entryX=0.5;entryY=0;entryDx=0;entryDy=0;exitX=1;exitY=0.5;exitDx=0;exitDy=0;" parent="WIyWlLk6GJQsqaUBKTNV-1" source="hBUY9OWEQW0w1tbR3MpV-21" target="hBUY9OWEQW0w1tbR3MpV-38" edge="1">
          <mxGeometry relative="1" as="geometry">
            <Array as="points">
              <mxPoint x="432" y="853" />
              <mxPoint x="570" y="853" />
            </Array>
          </mxGeometry>
        </mxCell>
        <mxCell id="hBUY9OWEQW0w1tbR3MpV-40" value="YES" style="edgeLabel;html=1;align=center;verticalAlign=middle;resizable=0;points=[];" parent="hBUY9OWEQW0w1tbR3MpV-39" vertex="1" connectable="0">
          <mxGeometry x="-0.0612" relative="1" as="geometry">
            <mxPoint y="1" as="offset" />
          </mxGeometry>
        </mxCell>
        <mxCell id="hBUY9OWEQW0w1tbR3MpV-21" value="&lt;b&gt;if&lt;/b&gt;&lt;br&gt;list != NULL" style="rhombus;whiteSpace=wrap;html=1;" parent="WIyWlLk6GJQsqaUBKTNV-1" vertex="1">
          <mxGeometry x="276" y="763" width="156" height="160" as="geometry" />
        </mxCell>
        <mxCell id="hBUY9OWEQW0w1tbR3MpV-68" style="edgeStyle=orthogonalEdgeStyle;rounded=0;orthogonalLoop=1;jettySize=auto;html=1;" parent="WIyWlLk6GJQsqaUBKTNV-1" source="hBUY9OWEQW0w1tbR3MpV-27" target="hBUY9OWEQW0w1tbR3MpV-67" edge="1">
          <mxGeometry relative="1" as="geometry" />
        </mxCell>
        <mxCell id="hBUY9OWEQW0w1tbR3MpV-27" value="&lt;i&gt;clean_list&lt;/i&gt;(&amp;amp;list)" style="shape=process;whiteSpace=wrap;html=1;backgroundOutline=1;" parent="WIyWlLk6GJQsqaUBKTNV-1" vertex="1">
          <mxGeometry x="294" y="947" width="120" height="60" as="geometry" />
        </mxCell>
        <mxCell id="hBUY9OWEQW0w1tbR3MpV-33" value="" style="edgeStyle=orthogonalEdgeStyle;rounded=0;orthogonalLoop=1;jettySize=auto;html=1;" parent="WIyWlLk6GJQsqaUBKTNV-1" source="hBUY9OWEQW0w1tbR3MpV-31" target="hBUY9OWEQW0w1tbR3MpV-32" edge="1">
          <mxGeometry relative="1" as="geometry" />
        </mxCell>
        <mxCell id="hBUY9OWEQW0w1tbR3MpV-31" value="s t_list *" style="text;html=1;align=center;verticalAlign=middle;resizable=0;points=[];autosize=1;strokeColor=default;fillColor=none;dashed=1;dashPattern=1 2;" parent="WIyWlLk6GJQsqaUBKTNV-1" vertex="1">
          <mxGeometry x="417" y="70" width="70" height="30" as="geometry" />
        </mxCell>
        <mxCell id="hBUY9OWEQW0w1tbR3MpV-32" value="t_list *" style="text;html=1;align=center;verticalAlign=middle;resizable=0;points=[];autosize=1;strokeColor=default;fillColor=none;dashed=1;dashPattern=1 2;" parent="WIyWlLk6GJQsqaUBKTNV-1" vertex="1">
          <mxGeometry x="417" y="123" width="60" height="30" as="geometry" />
        </mxCell>
        <mxCell id="hBUY9OWEQW0w1tbR3MpV-34" value="char *" style="text;html=1;align=center;verticalAlign=middle;resizable=0;points=[];autosize=1;strokeColor=default;fillColor=none;dashed=1;dashPattern=1 2;" parent="WIyWlLk6GJQsqaUBKTNV-1" vertex="1">
          <mxGeometry x="417" y="173" width="50" height="30" as="geometry" />
        </mxCell>
        <mxCell id="hBUY9OWEQW0w1tbR3MpV-35" value="&lt;div&gt;typedef struct s_list&lt;/div&gt;&lt;div&gt;&lt;span style=&quot;background-color: initial;&quot;&gt;{&lt;/span&gt;&lt;/div&gt;&lt;div&gt;&lt;span style=&quot;white-space: pre;&quot;&gt;&#x9;&lt;/span&gt;char&lt;span style=&quot;white-space: pre;&quot;&gt;&#x9;&lt;/span&gt;&lt;span style=&quot;white-space: pre;&quot;&gt;&#x9;&lt;/span&gt;&lt;span style=&quot;white-space: pre;&quot;&gt;&#x9;&lt;/span&gt;*str_buf;&lt;span style=&quot;&quot;&gt;&lt;span style=&quot;white-space: pre;&quot;&gt;&amp;nbsp;&amp;nbsp;&amp;nbsp;&amp;nbsp;&lt;/span&gt;&lt;/span&gt;&lt;span style=&quot;&quot;&gt;&lt;/span&gt;&lt;/div&gt;&lt;div&gt;&lt;span style=&quot;&quot;&gt;&lt;span style=&quot;white-space: pre;&quot;&gt;&#x9;&lt;/span&gt;struct s_list&lt;span style=&quot;&quot;&gt;&lt;span style=&quot;white-space: pre;&quot;&gt;&amp;nbsp;&amp;nbsp;&amp;nbsp;&amp;nbsp;&lt;span style=&quot;white-space: pre;&quot;&gt;&#x9;&lt;/span&gt;&lt;/span&gt;&lt;/span&gt;*next;&lt;/span&gt;&lt;/div&gt;&lt;div&gt;}&lt;span style=&quot;white-space: pre;&quot;&gt;&#x9;&lt;/span&gt;t_list;&lt;/div&gt;" style="text;html=1;align=left;verticalAlign=middle;resizable=0;points=[];autosize=1;strokeColor=default;fillColor=none;dashed=1;dashPattern=8 8;" parent="WIyWlLk6GJQsqaUBKTNV-1" vertex="1">
          <mxGeometry x="8" y="10" width="190" height="90" as="geometry" />
        </mxCell>
        <mxCell id="hBUY9OWEQW0w1tbR3MpV-41" style="edgeStyle=orthogonalEdgeStyle;rounded=0;orthogonalLoop=1;jettySize=auto;html=1;entryX=1;entryY=0.5;entryDx=0;entryDy=0;" parent="WIyWlLk6GJQsqaUBKTNV-1" source="hBUY9OWEQW0w1tbR3MpV-38" target="hBUY9OWEQW0w1tbR3MpV-27" edge="1">
          <mxGeometry relative="1" as="geometry">
            <Array as="points">
              <mxPoint x="570" y="977" />
            </Array>
          </mxGeometry>
        </mxCell>
        <mxCell id="hBUY9OWEQW0w1tbR3MpV-38" value="data = &lt;i&gt;get_data&lt;/i&gt;(list, &amp;amp;list)" style="shape=process;whiteSpace=wrap;html=1;backgroundOutline=1;" parent="WIyWlLk6GJQsqaUBKTNV-1" vertex="1">
          <mxGeometry x="510" y="893" width="120" height="60" as="geometry" />
        </mxCell>
        <mxCell id="hBUY9OWEQW0w1tbR3MpV-45" value="" style="edgeStyle=orthogonalEdgeStyle;rounded=0;orthogonalLoop=1;jettySize=auto;html=1;" parent="WIyWlLk6GJQsqaUBKTNV-1" source="hBUY9OWEQW0w1tbR3MpV-42" target="hBUY9OWEQW0w1tbR3MpV-44" edge="1">
          <mxGeometry relative="1" as="geometry" />
        </mxCell>
        <mxCell id="hBUY9OWEQW0w1tbR3MpV-42" value="last_node = &lt;i&gt;find_last_node&lt;/i&gt;(list)" style="shape=process;whiteSpace=wrap;html=1;backgroundOutline=1;" parent="WIyWlLk6GJQsqaUBKTNV-1" vertex="1">
          <mxGeometry x="494" y="463" width="136" height="60" as="geometry" />
        </mxCell>
        <mxCell id="hBUY9OWEQW0w1tbR3MpV-49" value="" style="edgeStyle=orthogonalEdgeStyle;rounded=0;orthogonalLoop=1;jettySize=auto;html=1;" parent="WIyWlLk6GJQsqaUBKTNV-1" source="hBUY9OWEQW0w1tbR3MpV-44" target="hBUY9OWEQW0w1tbR3MpV-48" edge="1">
          <mxGeometry relative="1" as="geometry" />
        </mxCell>
        <mxCell id="hBUY9OWEQW0w1tbR3MpV-50" value="NO" style="edgeLabel;html=1;align=center;verticalAlign=middle;resizable=0;points=[];" parent="hBUY9OWEQW0w1tbR3MpV-49" vertex="1" connectable="0">
          <mxGeometry x="-0.66" y="-3" relative="1" as="geometry">
            <mxPoint as="offset" />
          </mxGeometry>
        </mxCell>
        <mxCell id="hBUY9OWEQW0w1tbR3MpV-52" value="" style="edgeStyle=orthogonalEdgeStyle;rounded=0;orthogonalLoop=1;jettySize=auto;html=1;" parent="WIyWlLk6GJQsqaUBKTNV-1" source="hBUY9OWEQW0w1tbR3MpV-44" target="hBUY9OWEQW0w1tbR3MpV-51" edge="1">
          <mxGeometry relative="1" as="geometry" />
        </mxCell>
        <mxCell id="hBUY9OWEQW0w1tbR3MpV-53" value="YES" style="edgeLabel;html=1;align=center;verticalAlign=middle;resizable=0;points=[];" parent="hBUY9OWEQW0w1tbR3MpV-52" vertex="1" connectable="0">
          <mxGeometry x="-0.15" y="-1" relative="1" as="geometry">
            <mxPoint y="1" as="offset" />
          </mxGeometry>
        </mxCell>
        <mxCell id="hBUY9OWEQW0w1tbR3MpV-44" value="&lt;b&gt;if&lt;/b&gt;&amp;nbsp;(last_node)" style="rhombus;whiteSpace=wrap;html=1;" parent="WIyWlLk6GJQsqaUBKTNV-1" vertex="1">
          <mxGeometry x="518" y="543" width="88" height="89.75" as="geometry" />
        </mxCell>
        <mxCell id="hBUY9OWEQW0w1tbR3MpV-55" value="" style="edgeStyle=orthogonalEdgeStyle;rounded=0;orthogonalLoop=1;jettySize=auto;html=1;" parent="WIyWlLk6GJQsqaUBKTNV-1" source="hBUY9OWEQW0w1tbR3MpV-48" target="hBUY9OWEQW0w1tbR3MpV-54" edge="1">
          <mxGeometry relative="1" as="geometry" />
        </mxCell>
        <mxCell id="hBUY9OWEQW0w1tbR3MpV-48" value="data = &lt;i&gt;read_line&lt;/i&gt;(fd, &amp;amp;list);" style="shape=process;whiteSpace=wrap;html=1;backgroundOutline=1;" parent="WIyWlLk6GJQsqaUBKTNV-1" vertex="1">
          <mxGeometry x="502" y="680" width="120" height="60" as="geometry" />
        </mxCell>
        <mxCell id="hBUY9OWEQW0w1tbR3MpV-61" style="edgeStyle=orthogonalEdgeStyle;rounded=0;orthogonalLoop=1;jettySize=auto;html=1;entryX=0;entryY=0.5;entryDx=0;entryDy=0;" parent="WIyWlLk6GJQsqaUBKTNV-1" source="hBUY9OWEQW0w1tbR3MpV-51" target="hBUY9OWEQW0w1tbR3MpV-48" edge="1">
          <mxGeometry relative="1" as="geometry">
            <Array as="points">
              <mxPoint x="482" y="670" />
              <mxPoint x="482" y="710" />
            </Array>
          </mxGeometry>
        </mxCell>
        <mxCell id="hBUY9OWEQW0w1tbR3MpV-62" value="NO" style="edgeLabel;html=1;align=center;verticalAlign=middle;resizable=0;points=[];" parent="hBUY9OWEQW0w1tbR3MpV-61" vertex="1" connectable="0">
          <mxGeometry x="-0.136" y="-1" relative="1" as="geometry">
            <mxPoint y="1" as="offset" />
          </mxGeometry>
        </mxCell>
        <mxCell id="hBUY9OWEQW0w1tbR3MpV-51" value="&lt;b&gt;if&lt;/b&gt;&lt;br&gt;&lt;i&gt;is_break&lt;/i&gt;(last_node) == 1" style="rhombus;whiteSpace=wrap;html=1;" parent="WIyWlLk6GJQsqaUBKTNV-1" vertex="1">
          <mxGeometry x="330" y="585" width="120" height="119.5" as="geometry" />
        </mxCell>
        <mxCell id="hBUY9OWEQW0w1tbR3MpV-64" value="" style="edgeStyle=orthogonalEdgeStyle;rounded=0;orthogonalLoop=1;jettySize=auto;html=1;" parent="WIyWlLk6GJQsqaUBKTNV-1" source="hBUY9OWEQW0w1tbR3MpV-54" target="hBUY9OWEQW0w1tbR3MpV-63" edge="1">
          <mxGeometry relative="1" as="geometry" />
        </mxCell>
        <mxCell id="hBUY9OWEQW0w1tbR3MpV-71" value="NO" style="edgeLabel;html=1;align=center;verticalAlign=middle;resizable=0;points=[];" parent="hBUY9OWEQW0w1tbR3MpV-64" vertex="1" connectable="0">
          <mxGeometry x="-0.5369" y="1" relative="1" as="geometry">
            <mxPoint y="1" as="offset" />
          </mxGeometry>
        </mxCell>
        <mxCell id="hBUY9OWEQW0w1tbR3MpV-54" value="&lt;b&gt;if&lt;/b&gt;&amp;nbsp;(!data)" style="rhombus;whiteSpace=wrap;html=1;" parent="WIyWlLk6GJQsqaUBKTNV-1" vertex="1">
          <mxGeometry x="522" y="763" width="80" height="80" as="geometry" />
        </mxCell>
        <mxCell id="hBUY9OWEQW0w1tbR3MpV-57" style="edgeStyle=orthogonalEdgeStyle;rounded=0;orthogonalLoop=1;jettySize=auto;html=1;entryX=1;entryY=0;entryDx=0;entryDy=0;" parent="WIyWlLk6GJQsqaUBKTNV-1" source="hBUY9OWEQW0w1tbR3MpV-54" target="hBUY9OWEQW0w1tbR3MpV-21" edge="1">
          <mxGeometry relative="1" as="geometry">
            <mxPoint x="383.952" y="814.52" as="targetPoint" />
          </mxGeometry>
        </mxCell>
        <mxCell id="hBUY9OWEQW0w1tbR3MpV-58" value="YES" style="edgeLabel;html=1;align=center;verticalAlign=middle;resizable=0;points=[];" parent="hBUY9OWEQW0w1tbR3MpV-57" vertex="1" connectable="0">
          <mxGeometry x="-0.3194" y="1" relative="1" as="geometry">
            <mxPoint as="offset" />
          </mxGeometry>
        </mxCell>
        <mxCell id="hBUY9OWEQW0w1tbR3MpV-59" style="edgeStyle=orthogonalEdgeStyle;rounded=0;orthogonalLoop=1;jettySize=auto;html=1;" parent="WIyWlLk6GJQsqaUBKTNV-1" source="hBUY9OWEQW0w1tbR3MpV-51" target="hBUY9OWEQW0w1tbR3MpV-21" edge="1">
          <mxGeometry relative="1" as="geometry">
            <mxPoint x="380" y="809.6666666666667" as="targetPoint" />
            <Array as="points">
              <mxPoint x="380" y="660" />
              <mxPoint x="380" y="660" />
            </Array>
          </mxGeometry>
        </mxCell>
        <mxCell id="hBUY9OWEQW0w1tbR3MpV-60" value="YES" style="edgeLabel;html=1;align=center;verticalAlign=middle;resizable=0;points=[];" parent="hBUY9OWEQW0w1tbR3MpV-59" vertex="1" connectable="0">
          <mxGeometry x="-0.1643" relative="1" as="geometry">
            <mxPoint as="offset" />
          </mxGeometry>
        </mxCell>
        <mxCell id="hBUY9OWEQW0w1tbR3MpV-65" style="edgeStyle=orthogonalEdgeStyle;rounded=0;orthogonalLoop=1;jettySize=auto;html=1;" parent="WIyWlLk6GJQsqaUBKTNV-1" target="hBUY9OWEQW0w1tbR3MpV-19" edge="1">
          <mxGeometry relative="1" as="geometry">
            <mxPoint x="765" y="570" as="sourcePoint" />
            <mxPoint x="399" y="443" as="targetPoint" />
            <Array as="points">
              <mxPoint x="765" y="443" />
            </Array>
          </mxGeometry>
        </mxCell>
        <mxCell id="hBUY9OWEQW0w1tbR3MpV-63" value="&lt;i&gt;add_list&lt;/i&gt;(&amp;amp;list, data)" style="shape=process;whiteSpace=wrap;html=1;backgroundOutline=1;" parent="WIyWlLk6GJQsqaUBKTNV-1" vertex="1">
          <mxGeometry x="705" y="570" width="120" height="60" as="geometry" />
        </mxCell>
        <mxCell id="hBUY9OWEQW0w1tbR3MpV-66" value="DEFINE BUFFER_SIZE 10" style="text;html=1;align=center;verticalAlign=middle;resizable=0;points=[];autosize=1;strokeColor=default;fillColor=none;dashed=1;dashPattern=8 8;" parent="WIyWlLk6GJQsqaUBKTNV-1" vertex="1">
          <mxGeometry x="8" y="109" width="170" height="30" as="geometry" />
        </mxCell>
        <mxCell id="hBUY9OWEQW0w1tbR3MpV-70" style="edgeStyle=orthogonalEdgeStyle;rounded=0;orthogonalLoop=1;jettySize=auto;html=1;entryX=0.5;entryY=0;entryDx=0;entryDy=0;" parent="WIyWlLk6GJQsqaUBKTNV-1" source="hBUY9OWEQW0w1tbR3MpV-67" target="hBUY9OWEQW0w1tbR3MpV-13" edge="1">
          <mxGeometry relative="1" as="geometry" />
        </mxCell>
        <mxCell id="hBUY9OWEQW0w1tbR3MpV-67" value="return (data)" style="rounded=0;whiteSpace=wrap;html=1;" parent="WIyWlLk6GJQsqaUBKTNV-1" vertex="1">
          <mxGeometry x="294" y="1027" width="120" height="60" as="geometry" />
        </mxCell>
        <mxCell id="hBUY9OWEQW0w1tbR3MpV-72" value="s t_list **" style="text;html=1;align=center;verticalAlign=middle;resizable=0;points=[];autosize=1;strokeColor=default;fillColor=none;dashed=1;dashPattern=1 2;" parent="WIyWlLk6GJQsqaUBKTNV-1" vertex="1">
          <mxGeometry y="280" width="70" height="30" as="geometry" />
        </mxCell>
        <mxCell id="hBUY9OWEQW0w1tbR3MpV-73" value="int fd" style="text;html=1;align=center;verticalAlign=middle;resizable=0;points=[];autosize=1;strokeColor=default;fillColor=none;dashed=1;dashPattern=8 8;" parent="WIyWlLk6GJQsqaUBKTNV-1" vertex="1">
          <mxGeometry x="248" y="280" width="50" height="30" as="geometry" />
        </mxCell>
        <mxCell id="hBUY9OWEQW0w1tbR3MpV-74" value="BUFFER_SIZE" style="text;html=1;align=center;verticalAlign=middle;resizable=0;points=[];autosize=1;strokeColor=default;fillColor=none;dashed=1;dashPattern=8 8;" parent="WIyWlLk6GJQsqaUBKTNV-1" vertex="1">
          <mxGeometry x="230" y="246" width="100" height="30" as="geometry" />
        </mxCell>
        <mxCell id="hBUY9OWEQW0w1tbR3MpV-75" value="s t_list **" style="text;html=1;align=center;verticalAlign=middle;resizable=0;points=[];autosize=1;strokeColor=default;fillColor=none;dashed=1;dashPattern=1 2;" parent="WIyWlLk6GJQsqaUBKTNV-1" vertex="1">
          <mxGeometry x="220" y="930" width="70" height="30" as="geometry" />
        </mxCell>
        <mxCell id="hBUY9OWEQW0w1tbR3MpV-76" value="char *" style="text;html=1;align=center;verticalAlign=middle;resizable=0;points=[];autosize=1;strokeColor=default;fillColor=none;dashed=1;dashPattern=1 2;" parent="WIyWlLk6GJQsqaUBKTNV-1" vertex="1">
          <mxGeometry x="240" y="1010" width="50" height="30" as="geometry" />
        </mxCell>
        <mxCell id="hBUY9OWEQW0w1tbR3MpV-77" value="s t_list *" style="text;html=1;align=center;verticalAlign=middle;resizable=0;points=[];autosize=1;strokeColor=default;fillColor=none;dashed=1;dashPattern=1 2;" parent="WIyWlLk6GJQsqaUBKTNV-1" vertex="1">
          <mxGeometry x="246" y="770" width="70" height="30" as="geometry" />
        </mxCell>
        <mxCell id="hBUY9OWEQW0w1tbR3MpV-78" value="s t_list *" style="text;html=1;align=center;verticalAlign=middle;resizable=0;points=[];autosize=1;strokeColor=default;fillColor=none;dashed=1;dashPattern=1 2;" parent="WIyWlLk6GJQsqaUBKTNV-1" vertex="1">
          <mxGeometry x="424" y="450" width="70" height="30" as="geometry" />
        </mxCell>
        <mxCell id="hBUY9OWEQW0w1tbR3MpV-79" value="t_list *" style="text;html=1;align=center;verticalAlign=middle;resizable=0;points=[];autosize=1;strokeColor=default;fillColor=none;dashed=1;dashPattern=1 2;" parent="WIyWlLk6GJQsqaUBKTNV-1" vertex="1">
          <mxGeometry x="632" y="450" width="60" height="30" as="geometry" />
        </mxCell>
        <mxCell id="hBUY9OWEQW0w1tbR3MpV-80" value="t_list *" style="text;html=1;align=center;verticalAlign=middle;resizable=0;points=[];autosize=1;strokeColor=default;fillColor=none;dashed=1;dashPattern=1 2;" parent="WIyWlLk6GJQsqaUBKTNV-1" vertex="1">
          <mxGeometry x="478" y="535" width="60" height="30" as="geometry" />
        </mxCell>
        <mxCell id="hBUY9OWEQW0w1tbR3MpV-81" value="char *" style="text;html=1;align=center;verticalAlign=middle;resizable=0;points=[];autosize=1;strokeColor=default;fillColor=none;dashed=1;dashPattern=1 2;" parent="WIyWlLk6GJQsqaUBKTNV-1" vertex="1">
          <mxGeometry x="490" y="753" width="50" height="30" as="geometry" />
        </mxCell>
        <mxCell id="hBUY9OWEQW0w1tbR3MpV-82" value="char *" style="text;html=1;align=center;verticalAlign=middle;resizable=0;points=[];autosize=1;strokeColor=default;fillColor=none;dashed=1;dashPattern=1 2;" parent="WIyWlLk6GJQsqaUBKTNV-1" vertex="1">
          <mxGeometry x="622" y="660" width="50" height="30" as="geometry" />
        </mxCell>
        <mxCell id="hBUY9OWEQW0w1tbR3MpV-83" value="char *" style="text;html=1;align=center;verticalAlign=middle;resizable=0;points=[];autosize=1;strokeColor=default;fillColor=none;dashed=1;dashPattern=1 2;" parent="WIyWlLk6GJQsqaUBKTNV-1" vertex="1">
          <mxGeometry x="651" y="545" width="50" height="30" as="geometry" />
        </mxCell>
        <mxCell id="hBUY9OWEQW0w1tbR3MpV-84" value="s t_list **" style="text;html=1;align=center;verticalAlign=middle;resizable=0;points=[];autosize=1;strokeColor=default;fillColor=none;dashed=1;dashPattern=1 2;" parent="WIyWlLk6GJQsqaUBKTNV-1" vertex="1">
          <mxGeometry x="632" y="578" width="70" height="30" as="geometry" />
        </mxCell>
        <mxCell id="hBUY9OWEQW0w1tbR3MpV-89" style="edgeStyle=orthogonalEdgeStyle;rounded=0;orthogonalLoop=1;jettySize=auto;html=1;" parent="WIyWlLk6GJQsqaUBKTNV-1" source="hBUY9OWEQW0w1tbR3MpV-85" target="hBUY9OWEQW0w1tbR3MpV-88" edge="1">
          <mxGeometry relative="1" as="geometry" />
        </mxCell>
        <mxCell id="hBUY9OWEQW0w1tbR3MpV-85" value="&lt;b&gt;START&lt;/b&gt; clear_list(t_list **list)" style="rounded=1;whiteSpace=wrap;html=1;" parent="WIyWlLk6GJQsqaUBKTNV-1" vertex="1">
          <mxGeometry x="-427" width="120" height="60" as="geometry" />
        </mxCell>
        <mxCell id="hBUY9OWEQW0w1tbR3MpV-87" value="s t_list **" style="text;html=1;align=center;verticalAlign=middle;resizable=0;points=[];autosize=1;strokeColor=default;fillColor=none;dashed=1;dashPattern=1 2;" parent="WIyWlLk6GJQsqaUBKTNV-1" vertex="1">
          <mxGeometry x="-498" width="70" height="30" as="geometry" />
        </mxCell>
        <mxCell id="hBUY9OWEQW0w1tbR3MpV-97" style="edgeStyle=orthogonalEdgeStyle;rounded=0;orthogonalLoop=1;jettySize=auto;html=1;" parent="WIyWlLk6GJQsqaUBKTNV-1" source="hBUY9OWEQW0w1tbR3MpV-88" target="hBUY9OWEQW0w1tbR3MpV-90" edge="1">
          <mxGeometry relative="1" as="geometry" />
        </mxCell>
        <mxCell id="hBUY9OWEQW0w1tbR3MpV-88" value="t_list *tmp" style="shape=internalStorage;whiteSpace=wrap;html=1;backgroundOutline=1;dx=10;dy=10;" parent="WIyWlLk6GJQsqaUBKTNV-1" vertex="1">
          <mxGeometry x="-427" y="72" width="120" height="40" as="geometry" />
        </mxCell>
        <mxCell id="hBUY9OWEQW0w1tbR3MpV-92" style="edgeStyle=orthogonalEdgeStyle;rounded=0;orthogonalLoop=1;jettySize=auto;html=1;" parent="WIyWlLk6GJQsqaUBKTNV-1" source="hBUY9OWEQW0w1tbR3MpV-90" target="hBUY9OWEQW0w1tbR3MpV-93" edge="1">
          <mxGeometry relative="1" as="geometry">
            <mxPoint x="-527" y="169" as="targetPoint" />
          </mxGeometry>
        </mxCell>
        <mxCell id="hBUY9OWEQW0w1tbR3MpV-96" value="YES" style="edgeLabel;html=1;align=center;verticalAlign=middle;resizable=0;points=[];" parent="hBUY9OWEQW0w1tbR3MpV-92" vertex="1" connectable="0">
          <mxGeometry x="-0.4778" y="-1" relative="1" as="geometry">
            <mxPoint as="offset" />
          </mxGeometry>
        </mxCell>
        <mxCell id="hBUY9OWEQW0w1tbR3MpV-99" style="edgeStyle=orthogonalEdgeStyle;rounded=0;orthogonalLoop=1;jettySize=auto;html=1;" parent="WIyWlLk6GJQsqaUBKTNV-1" source="hBUY9OWEQW0w1tbR3MpV-90" target="hBUY9OWEQW0w1tbR3MpV-98" edge="1">
          <mxGeometry relative="1" as="geometry" />
        </mxCell>
        <mxCell id="hBUY9OWEQW0w1tbR3MpV-115" value="NO" style="edgeLabel;html=1;align=center;verticalAlign=middle;resizable=0;points=[];" parent="hBUY9OWEQW0w1tbR3MpV-99" vertex="1" connectable="0">
          <mxGeometry x="0.4151" y="-1" relative="1" as="geometry">
            <mxPoint as="offset" />
          </mxGeometry>
        </mxCell>
        <mxCell id="hBUY9OWEQW0w1tbR3MpV-90" value="&lt;b&gt;if&lt;/b&gt;&lt;br&gt;!(*list)" style="rhombus;whiteSpace=wrap;html=1;" parent="WIyWlLk6GJQsqaUBKTNV-1" vertex="1">
          <mxGeometry x="-407" y="127" width="80" height="80" as="geometry" />
        </mxCell>
        <mxCell id="hBUY9OWEQW0w1tbR3MpV-91" value="&lt;b&gt;STOP&lt;/b&gt;&amp;nbsp;clear_list()" style="rounded=1;whiteSpace=wrap;html=1;" parent="WIyWlLk6GJQsqaUBKTNV-1" vertex="1">
          <mxGeometry x="-427" y="383" width="120" height="50" as="geometry" />
        </mxCell>
        <mxCell id="hBUY9OWEQW0w1tbR3MpV-94" style="edgeStyle=orthogonalEdgeStyle;rounded=0;orthogonalLoop=1;jettySize=auto;html=1;" parent="WIyWlLk6GJQsqaUBKTNV-1" target="hBUY9OWEQW0w1tbR3MpV-91" edge="1">
          <mxGeometry relative="1" as="geometry">
            <mxPoint x="-560" y="306" as="sourcePoint" />
            <mxPoint x="-440" y="514" as="targetPoint" />
            <Array as="points">
              <mxPoint x="-560" y="410" />
            </Array>
          </mxGeometry>
        </mxCell>
        <mxCell id="hBUY9OWEQW0w1tbR3MpV-93" value="return" style="rounded=0;whiteSpace=wrap;html=1;" parent="WIyWlLk6GJQsqaUBKTNV-1" vertex="1">
          <mxGeometry x="-620" y="274" width="120" height="60" as="geometry" />
        </mxCell>
        <mxCell id="hBUY9OWEQW0w1tbR3MpV-95" style="edgeStyle=orthogonalEdgeStyle;rounded=0;orthogonalLoop=1;jettySize=auto;html=1;dashed=1;dashPattern=8 8;strokeColor=#B3B3B3;endArrow=block;endFill=1;startArrow=box;startFill=0;entryX=0;entryY=0.5;entryDx=0;entryDy=0;" parent="WIyWlLk6GJQsqaUBKTNV-1" source="hBUY9OWEQW0w1tbR3MpV-91" target="hBUY9OWEQW0w1tbR3MpV-9" edge="1">
          <mxGeometry relative="1" as="geometry">
            <mxPoint x="-307" y="479" as="sourcePoint" />
            <mxPoint x="77" y="319" as="targetPoint" />
            <Array as="points">
              <mxPoint x="60" y="408" />
              <mxPoint x="60" y="333" />
            </Array>
          </mxGeometry>
        </mxCell>
        <mxCell id="hBUY9OWEQW0w1tbR3MpV-106" value="" style="edgeStyle=orthogonalEdgeStyle;rounded=0;orthogonalLoop=1;jettySize=auto;html=1;" parent="WIyWlLk6GJQsqaUBKTNV-1" source="hBUY9OWEQW0w1tbR3MpV-98" target="hBUY9OWEQW0w1tbR3MpV-105" edge="1">
          <mxGeometry relative="1" as="geometry">
            <Array as="points">
              <mxPoint x="-231" y="280" />
              <mxPoint x="-231" y="360" />
            </Array>
            <mxPoint x="-367" y="264" as="sourcePoint" />
            <mxPoint x="-191" y="341" as="targetPoint" />
          </mxGeometry>
        </mxCell>
        <mxCell id="hBUY9OWEQW0w1tbR3MpV-107" value="YES" style="edgeLabel;html=1;align=center;verticalAlign=middle;resizable=0;points=[];" parent="hBUY9OWEQW0w1tbR3MpV-106" vertex="1" connectable="0">
          <mxGeometry x="-0.4444" y="2" relative="1" as="geometry">
            <mxPoint y="1" as="offset" />
          </mxGeometry>
        </mxCell>
        <mxCell id="8XKk1QwSlwQ8x120zKjb-39" style="edgeStyle=none;curved=1;rounded=0;orthogonalLoop=1;jettySize=auto;html=1;fontSize=12;startSize=8;endSize=8;" edge="1" parent="WIyWlLk6GJQsqaUBKTNV-1" source="hBUY9OWEQW0w1tbR3MpV-98" target="hBUY9OWEQW0w1tbR3MpV-100">
          <mxGeometry relative="1" as="geometry" />
        </mxCell>
        <mxCell id="8XKk1QwSlwQ8x120zKjb-40" value="&lt;font style=&quot;font-size: 11px;&quot;&gt;NO&lt;/font&gt;" style="edgeLabel;html=1;align=center;verticalAlign=middle;resizable=0;points=[];fontSize=16;" vertex="1" connectable="0" parent="8XKk1QwSlwQ8x120zKjb-39">
          <mxGeometry x="-0.1034" y="1" relative="1" as="geometry">
            <mxPoint as="offset" />
          </mxGeometry>
        </mxCell>
        <mxCell id="hBUY9OWEQW0w1tbR3MpV-98" value="&lt;b&gt;while&lt;/b&gt;&amp;nbsp;(*list)" style="shape=hexagon;perimeter=hexagonPerimeter2;whiteSpace=wrap;html=1;fixedSize=1;" parent="WIyWlLk6GJQsqaUBKTNV-1" vertex="1">
          <mxGeometry x="-427" y="232" width="120" height="58" as="geometry" />
        </mxCell>
        <mxCell id="8XKk1QwSlwQ8x120zKjb-41" style="edgeStyle=none;curved=1;rounded=0;orthogonalLoop=1;jettySize=auto;html=1;fontSize=12;startSize=8;endSize=8;" edge="1" parent="WIyWlLk6GJQsqaUBKTNV-1" source="hBUY9OWEQW0w1tbR3MpV-100" target="hBUY9OWEQW0w1tbR3MpV-91">
          <mxGeometry relative="1" as="geometry" />
        </mxCell>
        <mxCell id="hBUY9OWEQW0w1tbR3MpV-100" value="*list = NULL" style="rounded=0;whiteSpace=wrap;html=1;" parent="WIyWlLk6GJQsqaUBKTNV-1" vertex="1">
          <mxGeometry x="-427" y="332" width="120" height="37" as="geometry" />
        </mxCell>
        <mxCell id="hBUY9OWEQW0w1tbR3MpV-109" value="" style="edgeStyle=orthogonalEdgeStyle;rounded=0;orthogonalLoop=1;jettySize=auto;html=1;" parent="WIyWlLk6GJQsqaUBKTNV-1" source="hBUY9OWEQW0w1tbR3MpV-105" target="hBUY9OWEQW0w1tbR3MpV-108" edge="1">
          <mxGeometry relative="1" as="geometry" />
        </mxCell>
        <mxCell id="hBUY9OWEQW0w1tbR3MpV-105" value="tmp = (*list)-&amp;gt;next" style="whiteSpace=wrap;html=1;" parent="WIyWlLk6GJQsqaUBKTNV-1" vertex="1">
          <mxGeometry x="-191" y="343" width="120" height="47" as="geometry" />
        </mxCell>
        <mxCell id="hBUY9OWEQW0w1tbR3MpV-111" value="" style="edgeStyle=orthogonalEdgeStyle;rounded=0;orthogonalLoop=1;jettySize=auto;html=1;" parent="WIyWlLk6GJQsqaUBKTNV-1" source="hBUY9OWEQW0w1tbR3MpV-108" target="hBUY9OWEQW0w1tbR3MpV-110" edge="1">
          <mxGeometry relative="1" as="geometry" />
        </mxCell>
        <mxCell id="hBUY9OWEQW0w1tbR3MpV-108" value="free((*list)-&amp;gt;str_buf)" style="whiteSpace=wrap;html=1;" parent="WIyWlLk6GJQsqaUBKTNV-1" vertex="1">
          <mxGeometry x="-191" y="280" width="120" height="45" as="geometry" />
        </mxCell>
        <mxCell id="hBUY9OWEQW0w1tbR3MpV-113" value="" style="edgeStyle=orthogonalEdgeStyle;rounded=0;orthogonalLoop=1;jettySize=auto;html=1;" parent="WIyWlLk6GJQsqaUBKTNV-1" source="hBUY9OWEQW0w1tbR3MpV-110" target="hBUY9OWEQW0w1tbR3MpV-112" edge="1">
          <mxGeometry relative="1" as="geometry" />
        </mxCell>
        <mxCell id="hBUY9OWEQW0w1tbR3MpV-110" value="free(*list)" style="whiteSpace=wrap;html=1;" parent="WIyWlLk6GJQsqaUBKTNV-1" vertex="1">
          <mxGeometry x="-191" y="218" width="120" height="42" as="geometry" />
        </mxCell>
        <mxCell id="hBUY9OWEQW0w1tbR3MpV-114" style="edgeStyle=orthogonalEdgeStyle;rounded=0;orthogonalLoop=1;jettySize=auto;html=1;" parent="WIyWlLk6GJQsqaUBKTNV-1" source="hBUY9OWEQW0w1tbR3MpV-112" target="hBUY9OWEQW0w1tbR3MpV-98" edge="1">
          <mxGeometry relative="1" as="geometry">
            <Array as="points">
              <mxPoint x="-271" y="174" />
              <mxPoint x="-271" y="261" />
            </Array>
          </mxGeometry>
        </mxCell>
        <mxCell id="hBUY9OWEQW0w1tbR3MpV-112" value="*list = tmp" style="whiteSpace=wrap;html=1;" parent="WIyWlLk6GJQsqaUBKTNV-1" vertex="1">
          <mxGeometry x="-191" y="160" width="120" height="45" as="geometry" />
        </mxCell>
        <mxCell id="8XKk1QwSlwQ8x120zKjb-5" style="edgeStyle=none;curved=1;rounded=0;orthogonalLoop=1;jettySize=auto;html=1;fontSize=12;startSize=8;endSize=8;" edge="1" parent="WIyWlLk6GJQsqaUBKTNV-1" source="8XKk1QwSlwQ8x120zKjb-1" target="8XKk1QwSlwQ8x120zKjb-4">
          <mxGeometry relative="1" as="geometry" />
        </mxCell>
        <mxCell id="8XKk1QwSlwQ8x120zKjb-1" value="&lt;b&gt;START&lt;/b&gt; clean_list(t_list **list)" style="rounded=1;whiteSpace=wrap;html=1;" vertex="1" parent="WIyWlLk6GJQsqaUBKTNV-1">
          <mxGeometry x="-427" y="453" width="120" height="60" as="geometry" />
        </mxCell>
        <mxCell id="8XKk1QwSlwQ8x120zKjb-32" style="edgeStyle=none;curved=1;rounded=0;orthogonalLoop=1;jettySize=auto;html=1;fontSize=12;startSize=8;endSize=8;" edge="1" parent="WIyWlLk6GJQsqaUBKTNV-1" source="8XKk1QwSlwQ8x120zKjb-3" target="8XKk1QwSlwQ8x120zKjb-11">
          <mxGeometry relative="1" as="geometry" />
        </mxCell>
        <mxCell id="8XKk1QwSlwQ8x120zKjb-3" value="t_list *last_node" style="shape=internalStorage;whiteSpace=wrap;html=1;backgroundOutline=1;dx=10;dy=10;" vertex="1" parent="WIyWlLk6GJQsqaUBKTNV-1">
          <mxGeometry x="-427" y="590" width="120" height="40" as="geometry" />
        </mxCell>
        <mxCell id="8XKk1QwSlwQ8x120zKjb-6" style="edgeStyle=none;curved=1;rounded=0;orthogonalLoop=1;jettySize=auto;html=1;fontSize=12;startSize=8;endSize=8;" edge="1" parent="WIyWlLk6GJQsqaUBKTNV-1" source="8XKk1QwSlwQ8x120zKjb-4" target="8XKk1QwSlwQ8x120zKjb-3">
          <mxGeometry relative="1" as="geometry" />
        </mxCell>
        <mxCell id="8XKk1QwSlwQ8x120zKjb-4" value="char *data" style="shape=internalStorage;whiteSpace=wrap;html=1;backgroundOutline=1;dx=10;dy=10;" vertex="1" parent="WIyWlLk6GJQsqaUBKTNV-1">
          <mxGeometry x="-427" y="535" width="120" height="40" as="geometry" />
        </mxCell>
        <mxCell id="8XKk1QwSlwQ8x120zKjb-7" style="edgeStyle=orthogonalEdgeStyle;rounded=0;orthogonalLoop=1;jettySize=auto;html=1;" edge="1" source="8XKk1QwSlwQ8x120zKjb-11" parent="WIyWlLk6GJQsqaUBKTNV-1" target="8XKk1QwSlwQ8x120zKjb-19">
          <mxGeometry relative="1" as="geometry">
            <mxPoint x="-560" y="895" as="targetPoint" />
          </mxGeometry>
        </mxCell>
        <mxCell id="8XKk1QwSlwQ8x120zKjb-8" value="YES" style="edgeLabel;html=1;align=center;verticalAlign=middle;resizable=0;points=[];" vertex="1" connectable="0" parent="8XKk1QwSlwQ8x120zKjb-7">
          <mxGeometry x="-0.4778" y="-1" relative="1" as="geometry">
            <mxPoint as="offset" />
          </mxGeometry>
        </mxCell>
        <mxCell id="8XKk1QwSlwQ8x120zKjb-30" style="edgeStyle=none;curved=1;rounded=0;orthogonalLoop=1;jettySize=auto;html=1;fontSize=12;startSize=8;endSize=8;" edge="1" parent="WIyWlLk6GJQsqaUBKTNV-1" source="8XKk1QwSlwQ8x120zKjb-11" target="8XKk1QwSlwQ8x120zKjb-20">
          <mxGeometry relative="1" as="geometry" />
        </mxCell>
        <mxCell id="8XKk1QwSlwQ8x120zKjb-31" value="NO" style="edgeLabel;html=1;align=center;verticalAlign=middle;resizable=0;points=[];fontSize=11;" vertex="1" connectable="0" parent="8XKk1QwSlwQ8x120zKjb-30">
          <mxGeometry x="-0.2432" y="-1" relative="1" as="geometry">
            <mxPoint as="offset" />
          </mxGeometry>
        </mxCell>
        <mxCell id="8XKk1QwSlwQ8x120zKjb-11" value="&lt;b&gt;if&lt;/b&gt;&lt;br&gt;!(*list)" style="rhombus;whiteSpace=wrap;html=1;" vertex="1" parent="WIyWlLk6GJQsqaUBKTNV-1">
          <mxGeometry x="-407" y="646" width="80" height="80" as="geometry" />
        </mxCell>
        <mxCell id="8XKk1QwSlwQ8x120zKjb-12" value="&lt;b&gt;STOP&lt;/b&gt;&amp;nbsp;clean_list()" style="rounded=1;whiteSpace=wrap;html=1;" vertex="1" parent="WIyWlLk6GJQsqaUBKTNV-1">
          <mxGeometry x="-427" y="1140" width="120" height="28.88" as="geometry" />
        </mxCell>
        <mxCell id="8XKk1QwSlwQ8x120zKjb-13" style="edgeStyle=orthogonalEdgeStyle;rounded=0;orthogonalLoop=1;jettySize=auto;html=1;exitX=0.5;exitY=1;exitDx=0;exitDy=0;" edge="1" target="8XKk1QwSlwQ8x120zKjb-12" parent="WIyWlLk6GJQsqaUBKTNV-1" source="8XKk1QwSlwQ8x120zKjb-19">
          <mxGeometry relative="1" as="geometry">
            <mxPoint x="-564" y="947" as="sourcePoint" />
            <mxPoint x="-444" y="1155" as="targetPoint" />
            <Array as="points">
              <mxPoint x="-560" y="1154" />
            </Array>
          </mxGeometry>
        </mxCell>
        <mxCell id="8XKk1QwSlwQ8x120zKjb-19" value="return" style="rounded=0;whiteSpace=wrap;html=1;" vertex="1" parent="WIyWlLk6GJQsqaUBKTNV-1">
          <mxGeometry x="-620" y="888" width="120" height="60" as="geometry" />
        </mxCell>
        <mxCell id="8XKk1QwSlwQ8x120zKjb-35" style="edgeStyle=none;curved=1;rounded=0;orthogonalLoop=1;jettySize=auto;html=1;fontSize=12;startSize=8;endSize=8;" edge="1" parent="WIyWlLk6GJQsqaUBKTNV-1" source="8XKk1QwSlwQ8x120zKjb-20" target="8XKk1QwSlwQ8x120zKjb-34">
          <mxGeometry relative="1" as="geometry" />
        </mxCell>
        <mxCell id="8XKk1QwSlwQ8x120zKjb-20" value="*data = NULL" style="rounded=0;whiteSpace=wrap;html=1;" vertex="1" parent="WIyWlLk6GJQsqaUBKTNV-1">
          <mxGeometry x="-427" y="758" width="120" height="27" as="geometry" />
        </mxCell>
        <mxCell id="8XKk1QwSlwQ8x120zKjb-47" style="edgeStyle=none;curved=1;rounded=0;orthogonalLoop=1;jettySize=auto;html=1;fontSize=12;startSize=8;endSize=8;" edge="1" parent="WIyWlLk6GJQsqaUBKTNV-1" source="8XKk1QwSlwQ8x120zKjb-34" target="8XKk1QwSlwQ8x120zKjb-45">
          <mxGeometry relative="1" as="geometry" />
        </mxCell>
        <mxCell id="8XKk1QwSlwQ8x120zKjb-34" value="last_node = &lt;i&gt;find_last_node&lt;/i&gt;(*list)" style="shape=process;whiteSpace=wrap;html=1;backgroundOutline=1;" vertex="1" parent="WIyWlLk6GJQsqaUBKTNV-1">
          <mxGeometry x="-437" y="806" width="140" height="40" as="geometry" />
        </mxCell>
        <mxCell id="8XKk1QwSlwQ8x120zKjb-49" style="edgeStyle=none;curved=1;rounded=0;orthogonalLoop=1;jettySize=auto;html=1;fontSize=12;startSize=8;endSize=8;" edge="1" parent="WIyWlLk6GJQsqaUBKTNV-1" source="8XKk1QwSlwQ8x120zKjb-44" target="8XKk1QwSlwQ8x120zKjb-46">
          <mxGeometry relative="1" as="geometry" />
        </mxCell>
        <mxCell id="8XKk1QwSlwQ8x120zKjb-44" value="clear_list(list)" style="shape=process;whiteSpace=wrap;html=1;backgroundOutline=1;" vertex="1" parent="WIyWlLk6GJQsqaUBKTNV-1">
          <mxGeometry x="-437" y="975" width="140" height="40" as="geometry" />
        </mxCell>
        <mxCell id="8XKk1QwSlwQ8x120zKjb-48" style="edgeStyle=none;curved=1;rounded=0;orthogonalLoop=1;jettySize=auto;html=1;fontSize=12;startSize=8;endSize=8;" edge="1" parent="WIyWlLk6GJQsqaUBKTNV-1" source="8XKk1QwSlwQ8x120zKjb-45" target="8XKk1QwSlwQ8x120zKjb-44">
          <mxGeometry relative="1" as="geometry" />
        </mxCell>
        <mxCell id="8XKk1QwSlwQ8x120zKjb-59" value="&lt;font style=&quot;font-size: 11px;&quot;&gt;NO&lt;/font&gt;" style="edgeLabel;html=1;align=center;verticalAlign=middle;resizable=0;points=[];fontSize=16;" vertex="1" connectable="0" parent="8XKk1QwSlwQ8x120zKjb-48">
          <mxGeometry x="-0.5172" y="3" relative="1" as="geometry">
            <mxPoint as="offset" />
          </mxGeometry>
        </mxCell>
        <mxCell id="8XKk1QwSlwQ8x120zKjb-54" style="edgeStyle=none;curved=1;rounded=0;orthogonalLoop=1;jettySize=auto;html=1;fontSize=12;startSize=8;endSize=8;" edge="1" parent="WIyWlLk6GJQsqaUBKTNV-1" source="8XKk1QwSlwQ8x120zKjb-45" target="8XKk1QwSlwQ8x120zKjb-51">
          <mxGeometry relative="1" as="geometry" />
        </mxCell>
        <mxCell id="8XKk1QwSlwQ8x120zKjb-55" value="&lt;font style=&quot;font-size: 11px;&quot;&gt;YES&lt;/font&gt;" style="edgeLabel;html=1;align=center;verticalAlign=middle;resizable=0;points=[];fontSize=16;" vertex="1" connectable="0" parent="8XKk1QwSlwQ8x120zKjb-54">
          <mxGeometry x="-0.1137" relative="1" as="geometry">
            <mxPoint as="offset" />
          </mxGeometry>
        </mxCell>
        <mxCell id="8XKk1QwSlwQ8x120zKjb-45" value="&lt;b&gt;if&lt;/b&gt;&lt;br&gt;is_break&lt;br&gt;(last_node)" style="rhombus;whiteSpace=wrap;html=1;" vertex="1" parent="WIyWlLk6GJQsqaUBKTNV-1">
          <mxGeometry x="-415" y="860" width="97" height="86" as="geometry" />
        </mxCell>
        <mxCell id="8XKk1QwSlwQ8x120zKjb-53" style="edgeStyle=none;curved=1;rounded=0;orthogonalLoop=1;jettySize=auto;html=1;fontSize=12;startSize=8;endSize=8;" edge="1" parent="WIyWlLk6GJQsqaUBKTNV-1" source="8XKk1QwSlwQ8x120zKjb-46" target="8XKk1QwSlwQ8x120zKjb-57">
          <mxGeometry relative="1" as="geometry">
            <mxPoint x="-240" y="1069.6446700507615" as="targetPoint" />
          </mxGeometry>
        </mxCell>
        <mxCell id="8XKk1QwSlwQ8x120zKjb-56" value="&lt;font style=&quot;font-size: 11px;&quot;&gt;YES&lt;/font&gt;" style="edgeLabel;html=1;align=center;verticalAlign=middle;resizable=0;points=[];fontSize=16;" vertex="1" connectable="0" parent="8XKk1QwSlwQ8x120zKjb-53">
          <mxGeometry x="-0.1697" relative="1" as="geometry">
            <mxPoint as="offset" />
          </mxGeometry>
        </mxCell>
        <mxCell id="8XKk1QwSlwQ8x120zKjb-62" style="edgeStyle=none;curved=1;rounded=0;orthogonalLoop=1;jettySize=auto;html=1;fontSize=12;startSize=8;endSize=8;" edge="1" parent="WIyWlLk6GJQsqaUBKTNV-1" source="8XKk1QwSlwQ8x120zKjb-46" target="8XKk1QwSlwQ8x120zKjb-12">
          <mxGeometry relative="1" as="geometry" />
        </mxCell>
        <mxCell id="8XKk1QwSlwQ8x120zKjb-63" value="&lt;font style=&quot;font-size: 11px;&quot;&gt;NO&lt;/font&gt;" style="edgeLabel;html=1;align=center;verticalAlign=middle;resizable=0;points=[];fontSize=16;" vertex="1" connectable="0" parent="8XKk1QwSlwQ8x120zKjb-62">
          <mxGeometry x="-0.125" y="3" relative="1" as="geometry">
            <mxPoint as="offset" />
          </mxGeometry>
        </mxCell>
        <mxCell id="8XKk1QwSlwQ8x120zKjb-46" value="&lt;b&gt;if&lt;/b&gt;&lt;br&gt;(data)" style="rhombus;whiteSpace=wrap;html=1;" vertex="1" parent="WIyWlLk6GJQsqaUBKTNV-1">
          <mxGeometry x="-407" y="1028" width="80" height="80" as="geometry" />
        </mxCell>
        <mxCell id="8XKk1QwSlwQ8x120zKjb-112" style="edgeStyle=orthogonalEdgeStyle;rounded=0;orthogonalLoop=1;jettySize=auto;html=1;fontSize=12;startSize=8;endSize=8;" edge="1" parent="WIyWlLk6GJQsqaUBKTNV-1" source="8XKk1QwSlwQ8x120zKjb-51" target="8XKk1QwSlwQ8x120zKjb-44">
          <mxGeometry relative="1" as="geometry">
            <Array as="points">
              <mxPoint x="-150" y="995" />
            </Array>
          </mxGeometry>
        </mxCell>
        <mxCell id="8XKk1QwSlwQ8x120zKjb-51" value="data = &lt;i&gt;read_remain_word(last_node)&lt;/i&gt;" style="shape=process;whiteSpace=wrap;html=1;backgroundOutline=1;size=0.047619047619047616;" vertex="1" parent="WIyWlLk6GJQsqaUBKTNV-1">
          <mxGeometry x="-240" y="886" width="190" height="40" as="geometry" />
        </mxCell>
        <mxCell id="8XKk1QwSlwQ8x120zKjb-111" style="edgeStyle=orthogonalEdgeStyle;rounded=0;orthogonalLoop=1;jettySize=auto;html=1;fontSize=12;startSize=8;endSize=8;" edge="1" parent="WIyWlLk6GJQsqaUBKTNV-1" source="8XKk1QwSlwQ8x120zKjb-57" target="8XKk1QwSlwQ8x120zKjb-12">
          <mxGeometry relative="1" as="geometry">
            <mxPoint x="-145" y="1150" as="targetPoint" />
            <Array as="points">
              <mxPoint x="-145" y="1130" />
              <mxPoint x="-320" y="1130" />
            </Array>
          </mxGeometry>
        </mxCell>
        <mxCell id="8XKk1QwSlwQ8x120zKjb-57" value="&lt;i&gt;add_list&lt;/i&gt;(list, data)" style="shape=process;whiteSpace=wrap;html=1;backgroundOutline=1;size=0.047619047619047616;" vertex="1" parent="WIyWlLk6GJQsqaUBKTNV-1">
          <mxGeometry x="-240" y="1048" width="190" height="40" as="geometry" />
        </mxCell>
        <mxCell id="8XKk1QwSlwQ8x120zKjb-64" style="edgeStyle=orthogonalEdgeStyle;rounded=0;orthogonalLoop=1;jettySize=auto;html=1;dashed=1;dashPattern=8 8;strokeColor=#B3B3B3;endArrow=block;endFill=1;startArrow=box;startFill=0;" edge="1" parent="WIyWlLk6GJQsqaUBKTNV-1" source="8XKk1QwSlwQ8x120zKjb-12" target="hBUY9OWEQW0w1tbR3MpV-27">
          <mxGeometry relative="1" as="geometry">
            <mxPoint x="-290" y="1112.5" as="sourcePoint" />
            <mxPoint x="94" y="1023.5" as="targetPoint" />
            <Array as="points">
              <mxPoint x="10" y="1150" />
              <mxPoint x="10" y="990" />
            </Array>
          </mxGeometry>
        </mxCell>
        <mxCell id="8XKk1QwSlwQ8x120zKjb-65" style="edgeStyle=orthogonalEdgeStyle;rounded=0;orthogonalLoop=1;jettySize=auto;html=1;dashed=1;dashPattern=8 8;strokeColor=#B3B3B3;endArrow=block;endFill=1;startArrow=box;startFill=0;exitX=0;exitY=0.5;exitDx=0;exitDy=0;" edge="1" parent="WIyWlLk6GJQsqaUBKTNV-1" source="hBUY9OWEQW0w1tbR3MpV-27" target="8XKk1QwSlwQ8x120zKjb-1">
          <mxGeometry relative="1" as="geometry">
            <Array as="points">
              <mxPoint x="10" y="977" />
              <mxPoint x="10" y="483" />
            </Array>
            <mxPoint x="290" y="975" as="sourcePoint" />
            <mxPoint x="-167" y="854.5" as="targetPoint" />
          </mxGeometry>
        </mxCell>
        <mxCell id="8XKk1QwSlwQ8x120zKjb-66" value="s t_list **" style="text;html=1;align=center;verticalAlign=middle;resizable=0;points=[];autosize=1;strokeColor=default;fillColor=none;dashed=1;dashPattern=1 2;" vertex="1" parent="WIyWlLk6GJQsqaUBKTNV-1">
          <mxGeometry x="-498" y="443" width="70" height="30" as="geometry" />
        </mxCell>
        <mxCell id="8XKk1QwSlwQ8x120zKjb-142" style="edgeStyle=none;curved=1;rounded=0;orthogonalLoop=1;jettySize=auto;html=1;fontSize=12;startSize=8;endSize=8;" edge="1" parent="WIyWlLk6GJQsqaUBKTNV-1" source="8XKk1QwSlwQ8x120zKjb-68" target="8XKk1QwSlwQ8x120zKjb-76">
          <mxGeometry relative="1" as="geometry" />
        </mxCell>
        <mxCell id="8XKk1QwSlwQ8x120zKjb-68" value="&lt;b&gt;START&lt;br&gt;&lt;/b&gt;find_last_node(t_list *list)" style="rounded=1;whiteSpace=wrap;html=1;" vertex="1" parent="WIyWlLk6GJQsqaUBKTNV-1">
          <mxGeometry x="-687" y="1202" width="120" height="60" as="geometry" />
        </mxCell>
        <mxCell id="8XKk1QwSlwQ8x120zKjb-69" value="s t_list *" style="text;html=1;align=center;verticalAlign=middle;resizable=0;points=[];autosize=1;strokeColor=default;fillColor=none;dashed=1;dashPattern=1 2;" vertex="1" parent="WIyWlLk6GJQsqaUBKTNV-1">
          <mxGeometry x="-758" y="1202" width="70" height="30" as="geometry" />
        </mxCell>
        <mxCell id="8XKk1QwSlwQ8x120zKjb-72" style="edgeStyle=orthogonalEdgeStyle;rounded=0;orthogonalLoop=1;jettySize=auto;html=1;" edge="1" source="8XKk1QwSlwQ8x120zKjb-76" target="8XKk1QwSlwQ8x120zKjb-79" parent="WIyWlLk6GJQsqaUBKTNV-1">
          <mxGeometry relative="1" as="geometry">
            <mxPoint x="-787" y="1371" as="targetPoint" />
          </mxGeometry>
        </mxCell>
        <mxCell id="8XKk1QwSlwQ8x120zKjb-73" value="YES" style="edgeLabel;html=1;align=center;verticalAlign=middle;resizable=0;points=[];" vertex="1" connectable="0" parent="8XKk1QwSlwQ8x120zKjb-72">
          <mxGeometry x="-0.4778" y="-1" relative="1" as="geometry">
            <mxPoint as="offset" />
          </mxGeometry>
        </mxCell>
        <mxCell id="8XKk1QwSlwQ8x120zKjb-74" style="edgeStyle=orthogonalEdgeStyle;rounded=0;orthogonalLoop=1;jettySize=auto;html=1;" edge="1" source="8XKk1QwSlwQ8x120zKjb-76" target="8XKk1QwSlwQ8x120zKjb-84" parent="WIyWlLk6GJQsqaUBKTNV-1">
          <mxGeometry relative="1" as="geometry" />
        </mxCell>
        <mxCell id="8XKk1QwSlwQ8x120zKjb-75" value="NO" style="edgeLabel;html=1;align=center;verticalAlign=middle;resizable=0;points=[];" vertex="1" connectable="0" parent="8XKk1QwSlwQ8x120zKjb-74">
          <mxGeometry x="0.4151" y="-1" relative="1" as="geometry">
            <mxPoint as="offset" />
          </mxGeometry>
        </mxCell>
        <mxCell id="8XKk1QwSlwQ8x120zKjb-76" value="&lt;b&gt;if&lt;/b&gt;&lt;br&gt;list == &lt;br&gt;NULL" style="rhombus;whiteSpace=wrap;html=1;" vertex="1" parent="WIyWlLk6GJQsqaUBKTNV-1">
          <mxGeometry x="-667" y="1329" width="80" height="80" as="geometry" />
        </mxCell>
        <mxCell id="8XKk1QwSlwQ8x120zKjb-77" value="&lt;b&gt;STOP&lt;br&gt;&lt;/b&gt;find_last_node()" style="rounded=1;whiteSpace=wrap;html=1;" vertex="1" parent="WIyWlLk6GJQsqaUBKTNV-1">
          <mxGeometry x="-687" y="1591" width="120" height="50" as="geometry" />
        </mxCell>
        <mxCell id="8XKk1QwSlwQ8x120zKjb-78" style="edgeStyle=orthogonalEdgeStyle;rounded=0;orthogonalLoop=1;jettySize=auto;html=1;" edge="1" target="8XKk1QwSlwQ8x120zKjb-77" parent="WIyWlLk6GJQsqaUBKTNV-1">
          <mxGeometry relative="1" as="geometry">
            <mxPoint x="-820" y="1508" as="sourcePoint" />
            <mxPoint x="-700" y="1716" as="targetPoint" />
            <Array as="points">
              <mxPoint x="-760" y="1508" />
              <mxPoint x="-760" y="1616" />
            </Array>
          </mxGeometry>
        </mxCell>
        <mxCell id="8XKk1QwSlwQ8x120zKjb-79" value="return (NULL)" style="rounded=0;whiteSpace=wrap;html=1;" vertex="1" parent="WIyWlLk6GJQsqaUBKTNV-1">
          <mxGeometry x="-820" y="1474" width="120" height="60" as="geometry" />
        </mxCell>
        <mxCell id="8XKk1QwSlwQ8x120zKjb-82" style="edgeStyle=none;curved=1;rounded=0;orthogonalLoop=1;jettySize=auto;html=1;fontSize=12;startSize=8;endSize=8;" edge="1" source="8XKk1QwSlwQ8x120zKjb-84" target="8XKk1QwSlwQ8x120zKjb-86" parent="WIyWlLk6GJQsqaUBKTNV-1">
          <mxGeometry relative="1" as="geometry" />
        </mxCell>
        <mxCell id="8XKk1QwSlwQ8x120zKjb-83" value="&lt;font style=&quot;font-size: 11px;&quot;&gt;NO&lt;/font&gt;" style="edgeLabel;html=1;align=center;verticalAlign=middle;resizable=0;points=[];fontSize=16;" vertex="1" connectable="0" parent="8XKk1QwSlwQ8x120zKjb-82">
          <mxGeometry x="-0.1034" y="1" relative="1" as="geometry">
            <mxPoint as="offset" />
          </mxGeometry>
        </mxCell>
        <mxCell id="8XKk1QwSlwQ8x120zKjb-97" style="edgeStyle=none;curved=1;rounded=0;orthogonalLoop=1;jettySize=auto;html=1;fontSize=12;startSize=8;endSize=8;entryX=0;entryY=0.5;entryDx=0;entryDy=0;" edge="1" parent="WIyWlLk6GJQsqaUBKTNV-1" source="8XKk1QwSlwQ8x120zKjb-84" target="8XKk1QwSlwQ8x120zKjb-96">
          <mxGeometry relative="1" as="geometry" />
        </mxCell>
        <mxCell id="8XKk1QwSlwQ8x120zKjb-98" value="&lt;font style=&quot;font-size: 11px;&quot;&gt;YES&lt;/font&gt;" style="edgeLabel;html=1;align=center;verticalAlign=middle;resizable=0;points=[];fontSize=16;" vertex="1" connectable="0" parent="8XKk1QwSlwQ8x120zKjb-97">
          <mxGeometry x="-0.3433" relative="1" as="geometry">
            <mxPoint as="offset" />
          </mxGeometry>
        </mxCell>
        <mxCell id="8XKk1QwSlwQ8x120zKjb-84" value="&lt;b&gt;while&lt;/b&gt;&amp;nbsp;(list)" style="shape=hexagon;perimeter=hexagonPerimeter2;whiteSpace=wrap;html=1;fixedSize=1;" vertex="1" parent="WIyWlLk6GJQsqaUBKTNV-1">
          <mxGeometry x="-687" y="1434" width="120" height="58" as="geometry" />
        </mxCell>
        <mxCell id="8XKk1QwSlwQ8x120zKjb-85" style="edgeStyle=none;curved=1;rounded=0;orthogonalLoop=1;jettySize=auto;html=1;fontSize=12;startSize=8;endSize=8;" edge="1" source="8XKk1QwSlwQ8x120zKjb-86" target="8XKk1QwSlwQ8x120zKjb-77" parent="WIyWlLk6GJQsqaUBKTNV-1">
          <mxGeometry relative="1" as="geometry" />
        </mxCell>
        <mxCell id="8XKk1QwSlwQ8x120zKjb-86" value="return(list)" style="rounded=0;whiteSpace=wrap;html=1;" vertex="1" parent="WIyWlLk6GJQsqaUBKTNV-1">
          <mxGeometry x="-687" y="1534" width="120" height="37" as="geometry" />
        </mxCell>
        <mxCell id="8XKk1QwSlwQ8x120zKjb-103" style="edgeStyle=none;curved=1;rounded=0;orthogonalLoop=1;jettySize=auto;html=1;fontSize=12;startSize=8;endSize=8;" edge="1" parent="WIyWlLk6GJQsqaUBKTNV-1" source="8XKk1QwSlwQ8x120zKjb-96" target="8XKk1QwSlwQ8x120zKjb-101">
          <mxGeometry relative="1" as="geometry" />
        </mxCell>
        <mxCell id="8XKk1QwSlwQ8x120zKjb-104" value="&lt;font style=&quot;font-size: 11px;&quot;&gt;YES&lt;/font&gt;" style="edgeLabel;html=1;align=center;verticalAlign=middle;resizable=0;points=[];fontSize=16;" vertex="1" connectable="0" parent="8XKk1QwSlwQ8x120zKjb-103">
          <mxGeometry x="-0.3125" relative="1" as="geometry">
            <mxPoint as="offset" />
          </mxGeometry>
        </mxCell>
        <mxCell id="8XKk1QwSlwQ8x120zKjb-113" style="edgeStyle=orthogonalEdgeStyle;rounded=0;orthogonalLoop=1;jettySize=auto;html=1;entryX=1;entryY=0.5;entryDx=0;entryDy=0;fontSize=12;startSize=8;endSize=8;" edge="1" parent="WIyWlLk6GJQsqaUBKTNV-1" source="8XKk1QwSlwQ8x120zKjb-96" target="8XKk1QwSlwQ8x120zKjb-86">
          <mxGeometry relative="1" as="geometry">
            <Array as="points">
              <mxPoint x="-477" y="1553" />
            </Array>
          </mxGeometry>
        </mxCell>
        <mxCell id="8XKk1QwSlwQ8x120zKjb-114" value="&lt;font style=&quot;font-size: 11px;&quot;&gt;NO&lt;/font&gt;" style="edgeLabel;html=1;align=center;verticalAlign=middle;resizable=0;points=[];fontSize=16;" vertex="1" connectable="0" parent="8XKk1QwSlwQ8x120zKjb-113">
          <mxGeometry x="-0.7172" relative="1" as="geometry">
            <mxPoint as="offset" />
          </mxGeometry>
        </mxCell>
        <mxCell id="8XKk1QwSlwQ8x120zKjb-96" value="&lt;b&gt;if&lt;/b&gt;&lt;br&gt;list-&amp;gt;next ==&amp;nbsp;&lt;br&gt;NULL" style="rhombus;whiteSpace=wrap;html=1;" vertex="1" parent="WIyWlLk6GJQsqaUBKTNV-1">
          <mxGeometry x="-522" y="1415" width="90" height="96" as="geometry" />
        </mxCell>
        <mxCell id="8XKk1QwSlwQ8x120zKjb-102" style="edgeStyle=orthogonalEdgeStyle;rounded=0;orthogonalLoop=1;jettySize=auto;html=1;fontSize=12;startSize=8;endSize=8;entryX=1;entryY=0.25;entryDx=0;entryDy=0;" edge="1" parent="WIyWlLk6GJQsqaUBKTNV-1" source="8XKk1QwSlwQ8x120zKjb-101" target="8XKk1QwSlwQ8x120zKjb-84">
          <mxGeometry relative="1" as="geometry">
            <Array as="points">
              <mxPoint x="-576" y="1348" />
            </Array>
          </mxGeometry>
        </mxCell>
        <mxCell id="8XKk1QwSlwQ8x120zKjb-101" value="list = list-&amp;gt;next" style="rounded=0;whiteSpace=wrap;html=1;" vertex="1" parent="WIyWlLk6GJQsqaUBKTNV-1">
          <mxGeometry x="-537" y="1329" width="120" height="37" as="geometry" />
        </mxCell>
        <mxCell id="8XKk1QwSlwQ8x120zKjb-115" style="edgeStyle=orthogonalEdgeStyle;rounded=0;orthogonalLoop=1;jettySize=auto;html=1;" edge="1" source="8XKk1QwSlwQ8x120zKjb-116" target="8XKk1QwSlwQ8x120zKjb-119" parent="WIyWlLk6GJQsqaUBKTNV-1">
          <mxGeometry relative="1" as="geometry" />
        </mxCell>
        <mxCell id="8XKk1QwSlwQ8x120zKjb-116" value="&lt;b&gt;START&lt;br&gt;&lt;/b&gt;is_break(t_list *list)" style="rounded=1;whiteSpace=wrap;html=1;" vertex="1" parent="WIyWlLk6GJQsqaUBKTNV-1">
          <mxGeometry x="-272" y="1210" width="120" height="60" as="geometry" />
        </mxCell>
        <mxCell id="8XKk1QwSlwQ8x120zKjb-117" value="s t_list *" style="text;html=1;align=center;verticalAlign=middle;resizable=0;points=[];autosize=1;strokeColor=default;fillColor=none;dashed=1;dashPattern=1 2;" vertex="1" parent="WIyWlLk6GJQsqaUBKTNV-1">
          <mxGeometry x="-343" y="1210" width="70" height="30" as="geometry" />
        </mxCell>
        <mxCell id="8XKk1QwSlwQ8x120zKjb-144" style="edgeStyle=none;curved=1;rounded=0;orthogonalLoop=1;jettySize=auto;html=1;fontSize=12;startSize=8;endSize=8;" edge="1" parent="WIyWlLk6GJQsqaUBKTNV-1" source="8XKk1QwSlwQ8x120zKjb-119" target="8XKk1QwSlwQ8x120zKjb-143">
          <mxGeometry relative="1" as="geometry" />
        </mxCell>
        <mxCell id="8XKk1QwSlwQ8x120zKjb-119" value="int i" style="shape=internalStorage;whiteSpace=wrap;html=1;backgroundOutline=1;dx=10;dy=10;" vertex="1" parent="WIyWlLk6GJQsqaUBKTNV-1">
          <mxGeometry x="-272" y="1285" width="120" height="40" as="geometry" />
        </mxCell>
        <mxCell id="8XKk1QwSlwQ8x120zKjb-125" value="&lt;b&gt;STOP&lt;br&gt;&lt;/b&gt;is_break()" style="rounded=1;whiteSpace=wrap;html=1;" vertex="1" parent="WIyWlLk6GJQsqaUBKTNV-1">
          <mxGeometry x="-272" y="1599" width="120" height="50" as="geometry" />
        </mxCell>
        <mxCell id="8XKk1QwSlwQ8x120zKjb-128" style="edgeStyle=none;curved=1;rounded=0;orthogonalLoop=1;jettySize=auto;html=1;fontSize=12;startSize=8;endSize=8;" edge="1" source="8XKk1QwSlwQ8x120zKjb-132" target="8XKk1QwSlwQ8x120zKjb-134" parent="WIyWlLk6GJQsqaUBKTNV-1">
          <mxGeometry relative="1" as="geometry" />
        </mxCell>
        <mxCell id="8XKk1QwSlwQ8x120zKjb-129" value="&lt;font style=&quot;font-size: 11px;&quot;&gt;NO&lt;/font&gt;" style="edgeLabel;html=1;align=center;verticalAlign=middle;resizable=0;points=[];fontSize=16;" vertex="1" connectable="0" parent="8XKk1QwSlwQ8x120zKjb-128">
          <mxGeometry x="-0.1034" y="1" relative="1" as="geometry">
            <mxPoint as="offset" />
          </mxGeometry>
        </mxCell>
        <mxCell id="8XKk1QwSlwQ8x120zKjb-130" style="edgeStyle=none;curved=1;rounded=0;orthogonalLoop=1;jettySize=auto;html=1;fontSize=12;startSize=8;endSize=8;entryX=0;entryY=0.5;entryDx=0;entryDy=0;" edge="1" source="8XKk1QwSlwQ8x120zKjb-132" target="8XKk1QwSlwQ8x120zKjb-139" parent="WIyWlLk6GJQsqaUBKTNV-1">
          <mxGeometry relative="1" as="geometry" />
        </mxCell>
        <mxCell id="8XKk1QwSlwQ8x120zKjb-131" value="&lt;font style=&quot;font-size: 11px;&quot;&gt;YES&lt;/font&gt;" style="edgeLabel;html=1;align=center;verticalAlign=middle;resizable=0;points=[];fontSize=16;" vertex="1" connectable="0" parent="8XKk1QwSlwQ8x120zKjb-130">
          <mxGeometry x="-0.3433" relative="1" as="geometry">
            <mxPoint as="offset" />
          </mxGeometry>
        </mxCell>
        <mxCell id="8XKk1QwSlwQ8x120zKjb-132" value="&lt;b&gt;while&lt;/b&gt;&lt;br&gt;(list-&amp;gt;str_buf[i++])" style="shape=hexagon;perimeter=hexagonPerimeter2;whiteSpace=wrap;html=1;fixedSize=1;" vertex="1" parent="WIyWlLk6GJQsqaUBKTNV-1">
          <mxGeometry x="-272" y="1409" width="120" height="58" as="geometry" />
        </mxCell>
        <mxCell id="8XKk1QwSlwQ8x120zKjb-133" style="edgeStyle=none;curved=1;rounded=0;orthogonalLoop=1;jettySize=auto;html=1;fontSize=12;startSize=8;endSize=8;" edge="1" source="8XKk1QwSlwQ8x120zKjb-134" target="8XKk1QwSlwQ8x120zKjb-125" parent="WIyWlLk6GJQsqaUBKTNV-1">
          <mxGeometry relative="1" as="geometry" />
        </mxCell>
        <mxCell id="8XKk1QwSlwQ8x120zKjb-134" value="return(0)" style="rounded=0;whiteSpace=wrap;html=1;" vertex="1" parent="WIyWlLk6GJQsqaUBKTNV-1">
          <mxGeometry x="-350" y="1542" width="120" height="37" as="geometry" />
        </mxCell>
        <mxCell id="8XKk1QwSlwQ8x120zKjb-147" style="edgeStyle=orthogonalEdgeStyle;rounded=0;orthogonalLoop=1;jettySize=auto;html=1;fontSize=12;startSize=8;endSize=8;entryX=1;entryY=0.5;entryDx=0;entryDy=0;" edge="1" parent="WIyWlLk6GJQsqaUBKTNV-1" source="8XKk1QwSlwQ8x120zKjb-139" target="8XKk1QwSlwQ8x120zKjb-146">
          <mxGeometry relative="1" as="geometry">
            <mxPoint x="-71.00126397666513" y="1473.995318424891" as="sourcePoint" />
            <mxPoint x="-119.02040816326534" y="1549.41" as="targetPoint" />
            <Array as="points">
              <mxPoint x="-60" y="1560" />
            </Array>
          </mxGeometry>
        </mxCell>
        <mxCell id="8XKk1QwSlwQ8x120zKjb-148" value="&lt;font style=&quot;font-size: 11px;&quot;&gt;YES&lt;/font&gt;" style="edgeLabel;html=1;align=center;verticalAlign=middle;resizable=0;points=[];fontSize=16;" vertex="1" connectable="0" parent="8XKk1QwSlwQ8x120zKjb-147">
          <mxGeometry x="-0.0064" y="4" relative="1" as="geometry">
            <mxPoint x="-1" as="offset" />
          </mxGeometry>
        </mxCell>
        <mxCell id="8XKk1QwSlwQ8x120zKjb-149" style="edgeStyle=orthogonalEdgeStyle;rounded=0;orthogonalLoop=1;jettySize=auto;html=1;fontSize=12;startSize=8;endSize=8;" edge="1" parent="WIyWlLk6GJQsqaUBKTNV-1" source="8XKk1QwSlwQ8x120zKjb-139" target="8XKk1QwSlwQ8x120zKjb-132">
          <mxGeometry relative="1" as="geometry">
            <mxPoint x="-110" y="1380" as="targetPoint" />
            <Array as="points">
              <mxPoint x="-110" y="1410" />
              <mxPoint x="-110" y="1410" />
            </Array>
          </mxGeometry>
        </mxCell>
        <mxCell id="8XKk1QwSlwQ8x120zKjb-150" value="&lt;font style=&quot;font-size: 11px;&quot;&gt;NO&lt;/font&gt;" style="edgeLabel;html=1;align=center;verticalAlign=middle;resizable=0;points=[];fontSize=16;" vertex="1" connectable="0" parent="8XKk1QwSlwQ8x120zKjb-149">
          <mxGeometry x="-0.0448" y="-1" relative="1" as="geometry">
            <mxPoint as="offset" />
          </mxGeometry>
        </mxCell>
        <mxCell id="8XKk1QwSlwQ8x120zKjb-139" value="&lt;b&gt;if&lt;/b&gt;&lt;br&gt;list-&amp;gt;next ==&amp;nbsp;&lt;br&gt;NULL" style="rhombus;whiteSpace=wrap;html=1;" vertex="1" parent="WIyWlLk6GJQsqaUBKTNV-1">
          <mxGeometry x="-105" y="1390" width="90" height="96" as="geometry" />
        </mxCell>
        <mxCell id="8XKk1QwSlwQ8x120zKjb-145" style="edgeStyle=none;curved=1;rounded=0;orthogonalLoop=1;jettySize=auto;html=1;fontSize=12;startSize=8;endSize=8;" edge="1" parent="WIyWlLk6GJQsqaUBKTNV-1" source="8XKk1QwSlwQ8x120zKjb-143" target="8XKk1QwSlwQ8x120zKjb-132">
          <mxGeometry relative="1" as="geometry" />
        </mxCell>
        <mxCell id="8XKk1QwSlwQ8x120zKjb-143" value="i = 0" style="rounded=0;whiteSpace=wrap;html=1;" vertex="1" parent="WIyWlLk6GJQsqaUBKTNV-1">
          <mxGeometry x="-272" y="1340" width="120" height="37" as="geometry" />
        </mxCell>
        <mxCell id="8XKk1QwSlwQ8x120zKjb-151" style="edgeStyle=none;curved=1;rounded=0;orthogonalLoop=1;jettySize=auto;html=1;fontSize=12;startSize=8;endSize=8;" edge="1" parent="WIyWlLk6GJQsqaUBKTNV-1" source="8XKk1QwSlwQ8x120zKjb-146" target="8XKk1QwSlwQ8x120zKjb-125">
          <mxGeometry relative="1" as="geometry" />
        </mxCell>
        <mxCell id="8XKk1QwSlwQ8x120zKjb-146" value="return(1)" style="rounded=0;whiteSpace=wrap;html=1;" vertex="1" parent="WIyWlLk6GJQsqaUBKTNV-1">
          <mxGeometry x="-200" y="1542" width="120" height="37" as="geometry" />
        </mxCell>
      </root>
    </mxGraphModel>
  </diagram>
</mxfile>
